<svg width="511" height="1041" viewBox="0 0 511 1041" fill="none" xmlns="http://www.w3.org/2000/svg">
<path fill-rule="evenodd" clip-rule="evenodd" d="M32.8666 57.3986C26 70.875 26 88.5167 26 123.8V917.2C26 952.483 26 970.125 32.8666 983.601C38.9066 995.456 48.5444 1005.09 60.3986 1011.13C73.875 1018 91.5167 1018 126.8 1018H384.2C419.483 1018 437.125 1018 450.601 1011.13C462.456 1005.09 472.093 995.456 478.133 983.601C485 970.125 485 952.483 485 917.2V123.8C485 88.5167 485 70.875 478.133 57.3986C472.093 45.5444 462.456 35.9066 450.601 29.8666C437.125 23 419.483 23 384.2 23H126.8C91.5167 23 73.875 23 60.3986 29.8666C48.5444 35.9066 38.9066 45.5444 32.8666 57.3986ZM204 39C192.954 39 184 47.9543 184 59C184 70.0457 192.954 79 204 79H307C318.046 79 327 70.0457 327 59C327 47.9543 318.046 39 307 39H204Z" fill="black"/>
</svg>
